<svg width="291" height="56" viewBox="0 0 291 56" fill="none" xmlns="http://www.w3.org/2000/svg">
<path d="M79.296 32.816C76.416 32.816 73.464 31.916 71.016 30.728L69.936 36.524C71.988 37.64 75.444 38.54 79.188 38.54C85.704 38.54 89.088 35.444 89.088 30.944C89.088 26.66 85.344 25.04 81.78 24.068C79.548 23.492 77.388 22.952 77.388 21.908C77.388 21.008 78.144 20.72 79.548 20.72C81.888 20.72 84.912 21.512 87.468 22.772L88.584 16.976C86.424 15.86 83.544 14.996 79.512 14.996C73.356 14.996 70.296 17.84 70.296 22.268C70.296 26.876 74.472 28.388 77.784 29.36C80.412 30.152 81.996 30.404 81.996 31.52C81.996 32.492 80.916 32.816 79.296 32.816ZM104.722 21.296H111.526V15.5H90.8256V21.296H97.6296V38H104.722V21.296ZM134.452 38L126.856 15.5H117.82L110.08 38H117.064L118.396 33.788H126.028L127.432 38H134.452ZM122.284 20.576L124.66 28.46H119.764L122.284 20.576ZM144.018 38V31.34L145.998 31.16L150.03 38H157.878L152.298 29.36C155.322 28.172 156.69 25.76 156.69 22.88C156.69 18.38 153.414 15.5 147.114 15.5H136.926V38H144.018ZM146.322 26.264L143.874 26.3V20.9H145.818C148.41 20.9 149.346 21.692 149.346 23.384C149.346 25.22 148.482 26.012 146.322 26.264ZM177.557 22.412L179.681 16.544C177.521 15.572 174.965 14.96 172.085 14.96C164.201 14.96 159.485 19.532 159.485 26.84C159.485 34.616 164.273 38.54 171.797 38.54C174.461 38.54 177.665 37.892 179.429 37.028L177.881 30.944C176.117 31.988 174.281 32.6 172.157 32.6C168.521 32.6 166.613 30.332 166.613 26.696C166.613 23.096 168.701 20.9 172.157 20.9C173.993 20.9 176.009 21.512 177.557 22.412ZM205.304 26.66C205.304 18.776 200.084 14.96 193.316 14.96C186.548 14.96 181.22 19.46 181.22 26.804C181.22 34.652 186.44 38.54 193.208 38.54C199.976 38.54 205.304 34.004 205.304 26.66ZM198.176 26.804C198.176 30.404 196.592 32.96 193.316 32.96C190.04 32.96 188.348 30.368 188.348 26.66C188.348 23.06 189.896 20.54 193.208 20.54C196.484 20.54 198.176 23.096 198.176 26.804ZM209.021 15.5V38H216.005V30.044H223.997V24.428H216.005V21.188H226.229V15.5H209.021ZM229.702 15.5V38H236.686V30.044H244.678V24.428H236.686V21.188H246.91V15.5H229.702ZM250.382 38H267.95V32.492H257.294V29.468H265.718V23.96H257.294V21.008H267.95V15.5H250.382V38ZM271.871 38H289.439V32.492H278.783V29.468H287.207V23.96H278.783V21.008H289.439V15.5H271.871V38Z" fill="#131313"/>
<path fill-rule="evenodd" clip-rule="evenodd" d="M28 56C38.2789 56 47.2641 50.4613 52.134 42.2056L50.9605 40.5505C50.8353 40.3738 50.6104 40.2979 50.4036 40.3624L41.4696 43.1514C41.0072 43.2957 40.6303 42.7641 40.9195 42.3755L46.508 34.8679C46.6373 34.6941 46.6401 34.4568 46.5148 34.2801L41.1015 26.6452C40.8214 26.25 41.2104 25.7273 41.6694 25.8823L50.5365 28.8772C50.7418 28.9465 50.9683 28.8758 51.0976 28.7021L55.5126 22.7709C53.0635 9.80606 41.6769 0 28 0C14.0526 0 2.48706 10.1977 0.352661 23.5438L4.19232 28.7021C4.32166 28.8758 4.54816 28.9465 4.75342 28.8772L13.6205 25.8823C14.0795 25.7273 14.4686 26.25 14.1884 26.6452L8.77515 34.2801C8.64984 34.4568 8.65259 34.6941 8.78192 34.8679L14.3704 42.3755C14.6596 42.7641 14.2827 43.2957 13.8203 43.1514L4.88629 40.3624C4.6795 40.2979 4.45465 40.3738 4.32941 40.5505L3.5481 41.6524C8.33801 50.213 17.4932 56 28 56ZM37.5597 15.034C38.0212 15.0478 38.4263 15.0599 38.7036 15.4814C39.1006 16.0853 39.0161 17.0527 38.919 18.1631L38.9014 18.3652C38.8949 18.4415 38.8884 18.5183 38.8821 18.5957H18.1554C18.1475 18.5107 18.1395 18.428 18.1318 18.3474C18.1212 18.2384 18.1108 18.1333 18.1008 18.0319C17.9786 16.7977 17.9104 16.1087 18.2411 15.4504C18.5211 14.8941 19.1373 14.9121 19.7565 14.9694C20.2889 15.0194 20.4496 14.5229 20.4745 13.8794L20.4761 13.8374C20.5057 13.058 20.5371 12.2302 21.0015 12.0726C21.3216 11.9646 21.7722 11.9994 22.239 12.0354C22.4786 12.0538 22.7224 12.0726 22.955 12.0726H34.5071C34.6229 12.0726 34.7502 12.0684 34.8824 12.0631L35.0056 12.058C35.5483 12.0352 36.1368 12.0104 36.3336 12.1892C36.5944 12.4274 36.6319 13.14 36.6499 13.8108C36.6517 13.8826 36.6487 13.9678 36.6455 14.0591C36.6355 14.3478 36.6234 14.6976 36.7513 14.8786C36.8616 15.0347 37.0805 15.0312 37.2677 15.0283H37.2695H37.271C37.291 15.0279 37.3105 15.0276 37.3297 15.0275C37.3544 15.0274 37.3782 15.0276 37.4008 15.0287C37.4307 15.0299 37.4604 15.0309 37.4899 15.0319L37.5544 15.0338L37.5597 15.034ZM20.7336 32.8768L20.7206 32.7004C20.4047 28.4052 20.0889 24.11 19.7695 19.8198C19.7665 19.761 19.764 19.7028 19.7806 19.6703C19.7874 19.6569 19.7976 19.6478 19.8124 19.645H37.3533C37.0844 23.46 36.8027 27.2573 36.5209 31.0544L36.5209 31.0553L36.5208 31.0569L36.5143 31.1422C36.2963 34.0824 36.0782 37.0226 35.8661 39.971H35.1972C35.1677 40.2621 35.1275 40.5885 35.0828 40.9311C35.0544 41.1493 35.024 41.3741 34.9935 41.6006L34.9902 41.6257C34.8745 42.4831 34.7559 43.3626 34.7194 44H34.5767C34.1593 43.8596 29.2081 42.0227 29.1912 33.9303L29.1915 33.9182V33.909L29.1914 33.8995L29.1912 33.8955V33.889L29.1907 33.886C29.1899 33.8725 29.1886 33.8591 29.1866 33.8458H30.4136C30.4893 33.8458 30.565 33.7741 30.6029 33.6627C30.7123 33.4013 30.7886 33.1277 30.83 32.8481C31.5081 33.226 32.0461 33.8058 32.3658 34.5038C32.6895 33.7936 32.7396 32.9924 32.5069 32.2487C32.2742 31.5051 31.7744 30.8696 31.1004 30.4601C31.1271 28.1511 30.2659 25.917 28.6885 24.2035C28.665 24.1777 28.6362 24.157 28.6041 24.1429C28.5723 24.1289 28.538 24.1215 28.5032 24.1212C28.4959 24.1213 28.4886 24.1216 28.4814 24.1223C28.4734 24.1231 28.4654 24.1242 28.4575 24.1257C28.4141 24.1339 28.3734 24.1533 28.3397 24.1822L28.3153 24.2035C26.7561 25.9147 25.8903 28.1274 25.8818 30.4229C25.2201 30.8442 24.7303 31.4802 24.498 32.2198C24.2657 32.9594 24.3057 33.7556 24.6109 34.4693C24.9324 33.7725 25.4699 33.1931 26.1467 32.8136C26.2147 33.1021 26.3051 33.3851 26.4172 33.66C26.4261 33.6931 26.4417 33.7237 26.4629 33.7503C26.4756 33.7662 26.4904 33.7806 26.5068 33.7932C26.534 33.8139 26.5649 33.8289 26.5977 33.8374C26.618 33.8427 26.6392 33.8456 26.6605 33.8458H27.811C27.8087 33.868 27.8079 33.8904 27.8088 33.9129C27.8067 41.7794 23.1498 43.7553 22.4762 44H22.403C22.3005 43.3364 22.1786 42.2566 22.0682 41.2792L22.0649 41.2501C22.0118 40.7792 21.9614 40.3335 21.9172 39.971H21.2559C21.0815 37.6076 20.9077 35.2435 20.7338 32.8794L20.7336 32.8768Z" fill="#068749"/>
</svg>
